<?xml version="1.0" standalone="no"?>
<!DOCTYPE svg PUBLIC "-//W3C//DTD SVG 20010904//EN"
 "http://www.w3.org/TR/2001/REC-SVG-20010904/DTD/svg10.dtd">
<svg version="1.0" xmlns="http://www.w3.org/2000/svg"
 width="2000.000000pt" height="2000.000000pt" viewBox="0 0 2000.000000 2000.000000"
 preserveAspectRatio="xMidYMid meet">
<metadata>
Created by potrace 1.16, written by Peter Selinger 2001-2019
</metadata>
<g transform="translate(0.000000,2000.000000) scale(0.100000,-0.100000)"
fill="#000000" stroke="none">
<path d="M1010 16820 l0 -2170 2170 0 2170 0 0 2170 0 2170 -2170 0 -2170 0 0
-2170z m3720 0 l0 -1550 -1550 0 -1550 0 0 1550 0 1550 1550 0 1550 0 0 -1550z"/>
<path d="M2250 16820 l0 -930 930 0 930 0 0 930 0 930 -930 0 -930 0 0 -930z"/>
<path d="M7210 18680 l0 -310 -620 0 -620 0 0 -310 0 -310 620 0 620 0 0 -310
0 -310 -310 0 -310 0 0 -310 0 -310 -310 0 -310 0 0 -310 0 -310 310 0 310 0
0 -310 0 -310 -310 0 -310 0 0 -310 0 -310 310 0 310 0 0 310 0 310 310 0 310
0 0 -620 0 -620 310 0 310 0 0 -310 0 -310 -310 0 -310 0 0 -620 0 -620 -310
0 -310 0 0 930 0 930 -310 0 -310 0 0 -310 0 -310 -310 0 -310 0 0 310 0 310
-930 0 -930 0 0 -620 0 -620 620 0 620 0 0 -310 0 -310 310 0 310 0 0 -310 0
-310 -620 0 -620 0 0 310 0 310 -620 0 -620 0 0 310 0 310 -310 0 -310 0 0
310 0 310 310 0 310 0 0 310 0 310 -310 0 -310 0 0 -310 0 -310 -310 0 -310 0
0 -310 0 -310 310 0 310 0 0 -310 0 -310 310 0 310 0 0 -310 0 -310 -930 0
-930 0 0 -310 0 -310 310 0 310 0 0 -310 0 -310 -310 0 -310 0 0 -620 0 -620
310 0 310 0 0 310 0 310 310 0 310 0 0 -620 0 -620 -310 0 -310 0 0 -310 0
-310 -310 0 -310 0 0 -310 0 -310 310 0 310 0 0 -620 0 -620 930 0 930 0 0
620 0 620 310 0 310 0 0 -310 0 -310 310 0 310 0 0 -310 0 -310 620 0 620 0 0
-310 0 -310 310 0 310 0 0 -310 0 -310 -310 0 -310 0 0 -620 0 -620 310 0 310
0 0 -310 0 -310 -310 0 -310 0 0 -310 0 -310 310 0 310 0 0 -620 0 -620 1860
0 1860 0 0 310 0 310 310 0 310 0 0 -310 0 -310 2790 0 2790 0 0 310 0 310
310 0 310 0 0 -310 0 -310 620 0 620 0 0 310 0 310 310 0 310 0 0 310 0 310
-1240 0 -1240 0 0 -310 0 -310 -620 0 -620 0 0 310 0 310 -310 0 -310 0 0 310
0 310 -310 0 -310 0 0 310 0 310 620 0 620 0 0 -310 0 -310 310 0 310 0 0 310
0 310 310 0 310 0 0 310 0 310 310 0 310 0 0 310 0 310 -310 0 -310 0 0 1550
0 1550 -310 0 -310 0 0 310 0 310 -310 0 -310 0 0 620 0 620 310 0 310 0 0
310 0 310 310 0 310 0 0 310 0 310 310 0 310 0 0 -620 0 -620 310 0 310 0 0
310 0 310 620 0 620 0 0 620 0 620 -310 0 -310 0 0 310 0 310 310 0 310 0 0
620 0 620 -310 0 -310 0 0 310 0 310 -310 0 -310 0 0 -310 0 -310 -620 0 -620
0 0 310 0 310 -310 0 -310 0 0 -310 0 -310 -620 0 -620 0 0 310 0 310 -620 0
-620 0 0 310 0 310 310 0 310 0 0 310 0 310 -310 0 -310 0 0 310 0 310 310 0
310 0 0 620 0 620 -310 0 -310 0 0 -620 0 -620 -310 0 -310 0 0 310 0 310
-310 0 -310 0 0 310 0 310 -310 0 -310 0 0 310 0 310 310 0 310 0 0 620 0 620
-930 0 -930 0 0 -310 0 -310 310 0 310 0 0 -310 0 -310 -620 0 -620 0 0 620 0
620 -310 0 -310 0 0 -310 0 -310 -310 0 -310 0 0 310 0 310 -620 0 -620 0 0
-310z m2480 -1240 l0 -310 310 0 310 0 0 -310 0 -310 930 0 930 0 0 -930 0
-930 -310 0 -310 0 0 310 0 310 -310 0 -310 0 0 -310 0 -310 -310 0 -310 0 0
-620 0 -620 310 0 310 0 0 310 0 310 310 0 310 0 0 -310 0 -310 310 0 310 0 0
310 0 310 310 0 310 0 0 -310 0 -310 310 0 310 0 0 -620 0 -620 620 0 620 0 0
310 0 310 -310 0 -310 0 0 310 0 310 310 0 310 0 0 -310 0 -310 620 0 620 0 0
310 0 310 310 0 310 0 0 -310 0 -310 -310 0 -310 0 0 -620 0 -620 310 0 310 0
0 -310 0 -310 -310 0 -310 0 0 -310 0 -310 -310 0 -310 0 0 620 0 620 -310 0
-310 0 0 -620 0 -620 -310 0 -310 0 0 -620 0 -620 -310 0 -310 0 0 620 0 620
310 0 310 0 0 620 0 620 -310 0 -310 0 0 310 0 310 -310 0 -310 0 0 310 0 310
-310 0 -310 0 0 -620 0 -620 310 0 310 0 0 -310 0 -310 -310 0 -310 0 0 -310
0 -310 310 0 310 0 0 -310 0 -310 -310 0 -310 0 0 -310 0 -310 310 0 310 0 0
-310 0 -310 -310 0 -310 0 0 -310 0 -310 310 0 310 0 0 -620 0 -620 310 0 310
0 0 -1240 0 -1240 -930 0 -930 0 0 -310 0 -310 310 0 310 0 0 -620 0 -620 310
0 310 0 0 310 0 310 620 0 620 0 0 -310 0 -310 310 0 310 0 0 -310 0 -310
-310 0 -310 0 0 310 0 310 -620 0 -620 0 0 -310 0 -310 -620 0 -620 0 0 310 0
310 -620 0 -620 0 0 -310 0 -310 -930 0 -930 0 0 310 0 310 -310 0 -310 0 0
-310 0 -310 -310 0 -310 0 0 310 0 310 310 0 310 0 0 310 0 310 620 0 620 0 0
310 0 310 -620 0 -620 0 0 310 0 310 -310 0 -310 0 0 620 0 620 -310 0 -310 0
0 620 0 620 310 0 310 0 0 310 0 310 310 0 310 0 0 310 0 310 -310 0 -310 0 0
310 0 310 310 0 310 0 0 310 0 310 310 0 310 0 0 310 0 310 310 0 310 0 0 310
0 310 -930 0 -930 0 0 -310 0 -310 -310 0 -310 0 0 -930 0 -930 -310 0 -310 0
0 -310 0 -310 -310 0 -310 0 0 -310 0 -310 -310 0 -310 0 0 310 0 310 -310 0
-310 0 0 930 0 930 -310 0 -310 0 0 -930 0 -930 -310 0 -310 0 0 -310 0 -310
-310 0 -310 0 0 310 0 310 -310 0 -310 0 0 310 0 310 310 0 310 0 0 -310 0
-310 310 0 310 0 0 1240 0 1240 -310 0 -310 0 0 310 0 310 310 0 310 0 0 -310
0 -310 620 0 620 0 0 310 0 310 -310 0 -310 0 0 310 0 310 -310 0 -310 0 0
310 0 310 620 0 620 0 0 -620 0 -620 310 0 310 0 0 310 0 310 310 0 310 0 0
310 0 310 310 0 310 0 0 310 0 310 -310 0 -310 0 0 310 0 310 -310 0 -310 0 0
310 0 310 310 0 310 0 0 -310 0 -310 310 0 310 0 0 -310 0 -310 310 0 310 0 0
-310 0 -310 -310 0 -310 0 0 -620 0 -620 -620 0 -620 0 0 -310 0 -310 310 0
310 0 0 -310 0 -310 -310 0 -310 0 0 -310 0 -310 310 0 310 0 0 -310 0 -310
310 0 310 0 0 930 0 930 310 0 310 0 0 310 0 310 310 0 310 0 0 310 0 310 620
0 620 0 0 620 0 620 -310 0 -310 0 0 -310 0 -310 -310 0 -310 0 0 310 0 310
310 0 310 0 0 310 0 310 310 0 310 0 0 -310 0 -310 310 0 310 0 0 310 0 310
620 0 620 0 0 310 0 310 -310 0 -310 0 0 310 0 310 -310 0 -310 0 0 -310 0
-310 -310 0 -310 0 0 310 0 310 -310 0 -310 0 0 620 0 620 310 0 310 0 0 -620
0 -620 310 0 310 0 0 620 0 620 310 0 310 0 0 930 0 930 -310 0 -310 0 0 -620
0 -620 -620 0 -620 0 0 620 0 620 310 0 310 0 0 310 0 310 620 0 620 0 0 -310z
m3720 -2480 l0 -310 -310 0 -310 0 0 310 0 310 310 0 310 0 0 -310z m4960
-1860 l0 -310 -310 0 -310 0 0 310 0 310 310 0 310 0 0 -310z m-620 -1240 l0
-310 310 0 310 0 0 -310 0 -310 -310 0 -310 0 0 310 0 310 -310 0 -310 0 0
310 0 310 310 0 310 0 0 -310z m-3100 -3720 l0 -310 310 0 310 0 0 -310 0
-310 -310 0 -310 0 0 -310 0 -310 -310 0 -310 0 0 310 0 310 -310 0 -310 0 0
310 0 310 310 0 310 0 0 310 0 310 310 0 310 0 0 -310z m1240 -3100 l0 -930
-930 0 -930 0 0 930 0 930 930 0 930 0 0 -930z"/>
<path d="M10310 15580 l0 -310 -310 0 -310 0 0 -310 0 -310 310 0 310 0 0 310
0 310 310 0 310 0 0 310 0 310 -310 0 -310 0 0 -310z"/>
<path d="M10930 13100 l0 -310 -310 0 -310 0 0 -310 0 -310 -620 0 -620 0 0
-620 0 -620 620 0 620 0 0 620 0 620 310 0 310 0 0 -1240 0 -1240 310 0 310 0
0 1240 0 1240 -310 0 -310 0 0 310 0 310 310 0 310 0 0 310 0 310 -310 0 -310
0 0 -310z"/>
<path d="M9690 9690 l0 -620 310 0 310 0 0 620 0 620 -310 0 -310 0 0 -620z"/>
<path d="M4110 9380 l0 -310 310 0 310 0 0 310 0 310 -310 0 -310 0 0 -310z"/>
<path d="M8450 8760 l0 -310 -310 0 -310 0 0 -310 0 -310 930 0 930 0 0 -310
0 -310 310 0 310 0 0 -310 0 -310 -310 0 -310 0 0 -310 0 -310 620 0 620 0 0
-310 0 -310 -930 0 -930 0 0 -310 0 -310 -310 0 -310 0 0 -310 0 -310 310 0
310 0 0 -310 0 -310 620 0 620 0 0 -310 0 -310 310 0 310 0 0 310 0 310 -310
0 -310 0 0 310 0 310 620 0 620 0 0 310 0 310 -310 0 -310 0 0 310 0 310 310
0 310 0 0 310 0 310 310 0 310 0 0 310 0 310 -310 0 -310 0 0 310 0 310 310 0
310 0 0 310 0 310 -310 0 -310 0 0 -310 0 -310 -620 0 -620 0 0 310 0 310
-310 0 -310 0 0 310 0 310 -310 0 -310 0 0 310 0 310 -310 0 -310 0 0 -310z
m3100 -2480 l0 -310 -310 0 -310 0 0 310 0 310 310 0 310 0 0 -310z m-1240
-1860 l0 -310 -620 0 -620 0 0 310 0 310 620 0 620 0 0 -310z"/>
<path d="M10930 8760 l0 -310 310 0 310 0 0 310 0 310 -310 0 -310 0 0 -310z"/>
<path d="M4730 7520 l0 -310 310 0 310 0 0 310 0 310 -310 0 -310 0 0 -310z"/>
<path d="M7830 6900 l0 -310 -310 0 -310 0 0 -620 0 -620 620 0 620 0 0 620 0
620 310 0 310 0 0 310 0 310 -620 0 -620 0 0 -310z"/>
<path d="M9070 2560 l0 -310 310 0 310 0 0 310 0 310 -310 0 -310 0 0 -310z"/>
<path d="M14650 5040 l0 -310 310 0 310 0 0 310 0 310 -310 0 -310 0 0 -310z"/>
<path d="M13410 18370 l0 -620 310 0 310 0 0 620 0 620 -310 0 -310 0 0 -620z"/>
<path d="M14650 16820 l0 -2170 2170 0 2170 0 0 2170 0 2170 -2170 0 -2170 0
0 -2170z m3720 0 l0 -1550 -1550 0 -1550 0 0 1550 0 1550 1550 0 1550 0 0
-1550z"/>
<path d="M15890 16820 l0 -930 930 0 930 0 0 930 0 930 -930 0 -930 0 0 -930z"/>
<path d="M18370 9380 l0 -310 310 0 310 0 0 310 0 310 -310 0 -310 0 0 -310z"/>
<path d="M16510 8760 l0 -310 620 0 620 0 0 -310 0 -310 620 0 620 0 0 310 0
310 -620 0 -620 0 0 310 0 310 -620 0 -620 0 0 -310z"/>
<path d="M17130 6280 l0 -930 310 0 310 0 0 930 0 930 -310 0 -310 0 0 -930z"/>
<path d="M18370 5660 l0 -930 -310 0 -310 0 0 -310 0 -310 310 0 310 0 0 -620
0 -620 310 0 310 0 0 620 0 620 -310 0 -310 0 0 310 0 310 310 0 310 0 0 930
0 930 -310 0 -310 0 0 -930z"/>
<path d="M1010 3180 l0 -2170 2170 0 2170 0 0 2170 0 2170 -2170 0 -2170 0 0
-2170z m3720 0 l0 -1550 -1550 0 -1550 0 0 1550 0 1550 1550 0 1550 0 0 -1550z"/>
<path d="M2250 3180 l0 -930 930 0 930 0 0 930 0 930 -930 0 -930 0 0 -930z"/>
<path d="M17130 3180 l0 -310 310 0 310 0 0 310 0 310 -310 0 -310 0 0 -310z"/>
</g>
</svg>
